# xmcd
#
# Track frame offsets:
#	183
#	13113
#	23868
#
# Disc length: 486 seconds
#
# Revision: 3
# Processed by: cddbd v1.5.2PL0 Copyright (c) Steve Scherf et al.
# Submitted via: VUPlayer 2.49
#
DISCID=1a01e403
DTITLE=Bart Peeters en De Radio's - I'm into Folk
DYEAR=1988
DGENRE=Folk
TTITLE0=I'm into Folk =Single Version=
TTITLE1=I'm into Folk =Dressing Room Version=
TTITLE2=I'm into Folk =instrumental Version=
EXTD=
EXTT0=
EXTT1=
EXTT2=
PLAYORDER=
